<?xml version="1.0" encoding="UTF-8"?>
<svg id="Layer_1" xmlns="http://www.w3.org/2000/svg" version="1.1" viewBox="0 0 384 512">
  <!-- Generator: Adobe Illustrator 29.0.1, SVG Export Plug-In . SVG Version: 2.1.0 Build 192)  -->
  <defs>
    <style>
      .st0 {
        fill: #144f5a;
      }

      .st1 {
        fill: #21747c;
        isolation: isolate;
        opacity: .4;
      }
    </style>
  </defs>
  <path class="st1" d="M336,63h-80v1c35.3,0,64,28.7,64,64H64c0-35.3,28.7-64,64-64v-1H48C21.5,63,0,84.5,0,111h0v352c0,26.5,21.5,48,48,48h288c26.5,0,48-21.5,48-48V111c0-26.5-21.5-48-48-48ZM192,192c35.3,0,64,28.7,64,64s-28.7,64-64,64-64-28.7-64-64,28.7-64,64-64ZM304,428.8c0,10.6-10,19.2-22.4,19.2H102.4c-12.4,0-22.4-8.6-22.4-19.2v-19.2c0-31.8,30.1-57.6,67.2-57.6h5c25.5,10.7,54.2,10.7,79.7,0h5c37.1,0,67.2,25.8,67.2,57.6v19.2Z"/>
  <path class="st0" d="M236.9,352h-5c-25.5,10.7-54.2,10.7-79.7,0h-5c-37.1,0-67.2,25.8-67.2,57.6v19.2c0,10.6,10,19.2,22.4,19.2h179.2c12.4,0,22.4-8.6,22.4-19.2v-19.2c.1-31.8-30-57.6-67.1-57.6h0ZM128,256c0,35.3,28.7,64,64,64s64-28.7,64-64-28.7-64-64-64-64,28.7-64,64ZM256,64C256,28.7,227.3,0,192,0s-64,28.7-64,64c-35.3,0-64,28.7-64,64h256c0-35.3-28.7-64-64-64ZM192,88c-13.3,0-24-10.7-24-24s10.7-24,24-24,24,10.7,24,24c0,13.2-10.7,24-23.9,24,0,0,0,0-.1,0Z"/>
</svg>