<?xml version="1.0" encoding="UTF-8"?>
<svg id="Layer_1" xmlns="http://www.w3.org/2000/svg" version="1.1" viewBox="0 0 576 512">
  <!-- Generator: Adobe Illustrator 29.0.1, SVG Export Plug-In . SVG Version: 2.1.0 Build 192)  -->
  <defs>
    <style>
      .st0 {
        fill: #144f5a;
      }

      .st1 {
        fill: #21747c;
        isolation: isolate;
        opacity: .4;
      }
    </style>
  </defs>
  <path class="st1" d="M299.7,226.3c-3.2-3.2-8.4-3.2-11.6,0-.2.2-.5.5-.7.8-45.3,62.5-40.4,150.1,15.9,206.4s143.9,61.2,206.4,15.9c3.6-2.7,4.3-7.8,1.6-11.4-.2-.3-.5-.6-.8-.9l-210.8-210.8ZM529.5,207.3c-56.3-56.3-143.9-61.2-206.4-15.9-3.6,2.7-4.3,7.8-1.6,11.4.2.3.5.6.8.9l210.8,210.8c3.2,3.2,8.4,3.2,11.6,0,.2-.2.5-.5.7-.8,45.3-62.6,40.5-150.1-15.9-206.4h0ZM112,32C50.2,32,0,82.1,0,143.9c0,0,0,0,0,.1v112h224v-112c0-61.8-50.1-112-111.9-112,0,0,0,0-.1,0Z"/>
  <path class="st0" d="M224,256v112c0,61.9-50.1,112-112,112S0,429.9,0,368v-112h224Z"/>
</svg>