<?xml version="1.0" encoding="UTF-8"?>
<svg id="Layer_1" xmlns="http://www.w3.org/2000/svg" version="1.1" viewBox="0 0 640 512">
  <!-- Generator: Adobe Illustrator 29.0.1, SVG Export Plug-In . SVG Version: 2.1.0 Build 192)  -->
  <defs>
    <style>
      .st0 {
        fill: #144f5a;
      }

      .st1 {
        fill: #21747c;
        isolation: isolate;
        opacity: .4;
      }
    </style>
  </defs>
  <path class="st1" d="M608,217c-17.5-16-40.3-24.9-64-25V64H96v128c-23.7,0-46.5,9-64,25V49.6C32,22.2,53.5,0,80,0h480c26.5,0,48,22.2,48,49.6v167.4Z"/>
  <path class="st0" d="M576,384h-64c-35.3,0-64,28.7-64,64v32c0,17.7,14.3,32,32,32h128c17.7,0,32-14.3,32-32v-32c0-35.3-28.7-64-64-64ZM544,352c35.3,0,64-28.7,64-64s-28.7-64-64-64-64,28.7-64,64,28.7,64,64,64ZM352,384h-64c-35.3,0-64,28.7-64,64v32c0,17.7,14.3,32,32,32h128c17.7,0,32-14.3,32-32v-32c0-35.3-28.7-64-64-64ZM128,384h-64c-35.3,0-64,28.7-64,64v32c0,17.7,14.3,32,32,32h128c17.7,0,32-14.3,32-32v-32c0-35.3-28.7-64-64-64ZM320,352c35.3,0,64-28.7,64-64s-28.7-64-64-64-64,28.7-64,64,28.7,64,64,64ZM96,352c35.3,0,64-28.7,64-64s-28.7-64-64-64-64,28.7-64,64,28.7,64,64,64Z"/>
</svg>