<?xml version="1.0" encoding="UTF-8"?>
<svg id="Layer_1" xmlns="http://www.w3.org/2000/svg" version="1.1" viewBox="0 0 512 512">
  <!-- Generator: Adobe Illustrator 29.0.1, SVG Export Plug-In . SVG Version: 2.1.0 Build 192)  -->
  <defs>
    <style>
      .st0 {
        fill: #144f5a;
      }

      .st1 {
        fill: #21747c;
        isolation: isolate;
        opacity: .4;
      }
    </style>
  </defs>
  <path class="st1" d="M512,128v360.1c0,13.2-10.8,23.9-24,23.9H224v-91.2c17.5-7.5,30.6-22.7,35.5-41.1.4-1.4.7-2.7,1-3.9.7-2.6,1.4-5.4,1.9-7,1.1-1.2,3.1-3.2,4.9-5.1l2.9-2.9c15.3-15.7,21.3-38.2,15.8-59.4-.4-1.4-.7-2.7-1-3.9-.7-2.6-1.5-5.5-1.8-7.2.4-1.7,1.2-4.6,1.9-7.2.3-1.2.6-2.5,1-3.8,5.5-21.1-.4-43.6-15.6-59.3l-2.8-2.8c-1.9-1.9-3.9-3.9-5-5.2-.5-1.6-1.2-4.5-1.9-7.1-.3-1.2-.6-2.5-1-3.9-5.6-21.2-22-37.8-43.1-43.7h-.1l-3.8-1c-2.4-.7-5.1-1.4-6.8-1.9-1.2-1.2-3.2-3.2-5-5.1-.8-.9-1.7-1.8-2.7-2.8-15.4-15.8-38.2-22.1-59.5-16.3h0l-3.8,1c-2.4.7-5,1.4-6.7,1.8V23.9c0-13.1,10.6-23.8,23.8-23.9h232v112c0,8.8,7.2,16,16,16h112Z"/>
  <path class="st0" d="M505,105L407.1,7c-4.5-4.5-10.6-7-17-7h-6.1v112c0,8.8,7.2,16,16,16h112v-6.1c0-6.3-2.5-12.4-7-16.9ZM255,271.1c2.7-10.3-.2-21.2-7.6-28.8-14.9-15.1-13.4-12.6-18.9-33.3-2.7-10.2-10.6-18.2-20.7-21-20.3-5.5-17.8-4.1-32.7-19.2-7.3-7.5-18.1-10.5-28.3-7.8-20.3,5.5-17.5,5.5-37.8,0-10.1-2.7-20.9.2-28.3,7.7-14.9,15.2-12.5,13.7-32.7,19.2-10.2,2.8-18.1,10.9-20.7,21.1-5.5,20.7-4,18.1-18.9,33.3-7.4,7.6-10.3,18.5-7.6,28.8,5.4,20.7,5.4,17.8,0,38.4-2.7,10.3.2,21.2,7.6,28.8,14.9,15.1,13.4,12.6,18.9,33.3,2.6,10.2,10.5,18.3,20.7,21.1,14.3,3.9,11.5,3,15.8,5v114.4l64-32,64,32v-114.4c4.3-2,1.5-1.1,15.8-5,10.2-2.8,18.1-10.9,20.7-21.1,5.5-20.7,4-18.1,18.9-33.3,7.4-7.6,10.3-18.5,7.6-28.8-5.4-20.6-5.4-17.7,0-38.4h0ZM128,352c-35.3,0-64-28.7-64-64s28.7-64,64-64,64,28.7,64,64-28.7,64-64,64Z"/>
</svg>