<?xml version="1.0" encoding="UTF-8"?>
<svg id="Layer_1" xmlns="http://www.w3.org/2000/svg" version="1.1" viewBox="0 0 640 512">
  <!-- Generator: Adobe Illustrator 29.0.1, SVG Export Plug-In . SVG Version: 2.1.0 Build 192)  -->
  <defs>
    <style>
      .st0 {
        fill: #144f5a;
      }

      .st1 {
        fill: #21747c;
        isolation: isolate;
        opacity: .4;
      }
    </style>
  </defs>
  <path class="st1" d="M323.1,175.7l-204.3,39.9c-21.6,4.3-37.6,22.7-38.7,44.7,15.3,8.9,20.5,28.5,11.6,43.7-2.3,4-5.6,7.5-9.4,10.2l25.4,114.3c1.9,8.6-3.5,17.2-12.1,19.1-1.2.3-2.3.4-3.5.4h-56.1c-8.8,0-16-7.2-16-16,0-1.2.1-2.3.4-3.5l25.4-114.3c-14.5-10.1-18.1-30-8-44.5,2.7-3.9,6.2-7.1,10.3-9.5,1.2-37.3,28-68.9,64.6-76.1l204.3-39.9c8.6-1.9,17.1,3.6,19,12.3,1.9,8.6-3.6,17.1-12.3,19-.2,0-.4,0-.6.1Z"/>
  <path class="st0" d="M622.3,198.8l-279,85.7c-15.2,4.7-31.5,4.7-46.8,0l-196.9-60.5c5.7-4.2,12.2-7,19.1-8.4l204.3-39.9c8.7-1.5,14.5-9.8,13-18.5s-9.8-14.5-18.5-13c-.2,0-.4,0-.6.1l-204.3,39.9c-18.8,3.7-35.7,14-47.6,29.2l-47.4-14.6c-23.5-7.2-23.5-38.4,0-45.6l278.9-85.7c15.3-4.7,31.5-4.7,46.8,0l278.9,85.7c23.5,7.2,23.5,38.4,0,45.6h0ZM352.8,315.1c-21.4,6.5-44.2,6.5-65.6,0l-145-44.5-14.2,113.5c0,35.4,86,64,192,64s192-28.6,192-64l-14.2-113.5-145,44.6Z"/>
</svg>