<?xml version="1.0" encoding="UTF-8"?>
<svg id="Layer_1" xmlns="http://www.w3.org/2000/svg" version="1.1" viewBox="0 0 576 512">
  <!-- Generator: Adobe Illustrator 29.0.1, SVG Export Plug-In . SVG Version: 2.1.0 Build 192)  -->
  <defs>
    <style>
      .st0 {
        fill: #144f5a;
      }

      .st1 {
        fill: #21747c;
        isolation: isolate;
        opacity: .4;
      }
    </style>
  </defs>
  <path class="st1" d="M0,128v304c0,26.5,21.5,48,48,48h480c26.5,0,48-21.5,48-48V128H0ZM176,192c35.3,0,64,28.7,64,64s-28.7,64-64,64-64-28.7-64-64,28.7-64,64-64ZM269.3,416H82.7c-10.4,0-18.8-10-15.6-19.8,8.6-26.4,33.2-44.2,60.9-44.2h8.2c25.5,10.7,54.1,10.7,79.6,0h8.2c27.7,0,52.3,17.8,60.9,44.2,3.2,9.9-5.2,19.8-15.6,19.8ZM512,344c0,4.4-3.6,8-8,8h-144c-4.4,0-8-3.6-8-8v-16c0-4.4,3.6-8,8-8h144c4.4,0,8,3.6,8,8v16ZM512,280c0,4.4-3.6,8-8,8h-144c-4.4,0-8-3.6-8-8v-16c0-4.4,3.6-8,8-8h144c4.4,0,8,3.6,8,8v16ZM512,216c0,4.4-3.6,8-8,8h-144c-4.4,0-8-3.6-8-8v-16c0-4.4,3.6-8,8-8h144c4.4,0,8,3.6,8,8v16Z"/>
  <path class="st0" d="M224,352h-8.2c-25.5,10.7-54.1,10.7-79.6,0h-8.2c-27.7,0-52.3,17.8-60.9,44.2-3.2,9.8,5.2,19.8,15.6,19.8h186.6c10.4,0,18.8-9.9,15.6-19.8-8.6-26.4-33.2-44.2-60.9-44.2ZM528,32H48C21.5,32,0,53.5,0,80v48h576v-48c0-26.5-21.5-48-48-48ZM176,320c35.3,0,64-28.7,64-64s-28.7-64-64-64-64,28.7-64,64,28.7,64,64,64Z"/>
</svg>