<?xml version="1.0" encoding="UTF-8"?>
<svg id="Layer_1" xmlns="http://www.w3.org/2000/svg" version="1.1" viewBox="0 0 576 512">
  <!-- Generator: Adobe Illustrator 29.0.1, SVG Export Plug-In . SVG Version: 2.1.0 Build 192)  -->
  <defs>
    <style>
      .st0 {
        fill: #144f5a;
      }

      .st1 {
        fill: #21747c;
        isolation: isolate;
        opacity: .4;
      }
    </style>
  </defs>
  <path class="st0" d="M554.1,161.2l-138.1,62.8v288l139.9-56c12.2-4.9,20.1-16.6,20.1-29.7v-250.3c0-8.8-7.2-16-16-16-2,0-4,.4-5.9,1.1ZM20.1,216C8,220.9,0,232.6,0,245.7v250.3c0,8.8,7.2,16,16,16,2,0,4.1-.4,5.9-1.1l138.1-62.9v-233.1c-8.4-14.8-15.5-30.4-21.2-46.4l-118.6,47.5ZM288,359.7c-14.1,0-27.4-6.2-36.5-17-19.7-23.2-40.6-49.6-59.5-76.7v182l192,64v-246c-18.9,27.1-39.8,53.5-59.5,76.7-9.1,10.7-22.4,16.9-36.5,17Z"/>
  <path class="st1" d="M288,0c-69.6,0-126,56.4-126,126s82.4,158.8,113.9,196c5.6,6.7,15.5,7.6,22.2,2,.7-.6,1.4-1.3,2-2,31.5-37.2,113.9-139.7,113.9-196S357.6,0,288,0ZM288,168c-23.2,0-42-18.8-42-42s18.8-42,42-42,42,18.8,42,42-18.8,42-42,42h0Z"/>
</svg>