<?xml version="1.0" encoding="UTF-8"?>
<svg id="Layer_1" xmlns="http://www.w3.org/2000/svg" version="1.1" viewBox="0 0 640 512">
  <!-- Generator: Adobe Illustrator 29.0.1, SVG Export Plug-In . SVG Version: 2.1.0 Build 192)  -->
  <defs>
    <style>
      .st0 {
        fill: #144f5a;
      }

      .st1 {
        fill: #21747c;
        isolation: isolate;
        opacity: .4;
      }
    </style>
  </defs>
  <path class="st1" d="M360,176h-24v-40c0-4.4-3.6-8-8-8h-16c-4.4,0-8,3.6-8,8v64c0,4.4,3.6,8,8,8h48c4.4,0,8-3.6,8-8v-16c0-4.4-3.6-8-8-8ZM0,224v272c0,8.8,7.2,16,16,16h80V192H32c-17.7,0-32,14.3-32,32ZM608,192h-64v320h80c8.8,0,16-7.2,16-16V224c0-17.7-14.3-32-32-32Z"/>
  <path class="st0" d="M497.8,112L337.8,5.4c-10.7-7.2-24.8-7.2-35.5,0l-160,106.6c-8.9,5.9-14.3,15.9-14.2,26.7v373.3h128v-144c0-8.8,7.2-16,16-16h96c8.8,0,16,7.2,16,16v144h128V138.7c0-10.7-5.3-20.7-14.2-26.7ZM320,256c-44.2,0-80-35.8-80-80s35.8-80,80-80,80,35.8,80,80-35.8,80-80,80Z"/>
</svg>